<svg xmlns="http://www.w3.org/2000/svg" viewBox="0 0 129.06 116.12"><defs><style>.cls-2{opacity:.64}.cls-3{fill:#fff}.cls-5{opacity:.21}.cls-6{fill:#d4d4d4}</style></defs><g id="Layer_2" data-name="Layer 2"><g id="Layer_1-2" data-name="Layer 1"><g opacity=".8"><g class="cls-2"><path class="cls-3" d="M35.29 1.18C31.25 4.93 28 10.42 25.71 17h19.16c-2.27-6.58-5.54-12.07-9.58-15.82zM25.26 62.49a54.41 54.41 0 01-.96-2.79c-.17-.55-.39-1.24-.57-1.87l-.31-1.16c-.21-.8-.4-1.6-.58-2.42l-.2-.93c-.1-.53-.23-1-.32-1.58a22.07 22.07 0 00-7.92 24.49 22.83 22.83 0 0111.75-11.47l-.06-.14c-.29-.7-.56-1.41-.83-2.13zM44.7 61.29c.31-.87.59-1.75.86-2.65.1-.32.2-.63.29-1 .21-.76.41-1.54.6-2.32l.31-1.32c.16-.73.3-1.46.44-2.2a72.11 72.11 0 001.19-12.92A68.37 68.37 0 0045 17.45H25.55a68.37 68.37 0 00-3.36 21.48 72.36 72.36 0 001.32 13.61l.25 1.24c.15.71.32 1.4.49 2.09l.4 1.54c.14.54.32 1.08.48 1.61s.42 1.33.65 2l.39 1.07c.3.8.61 1.59.94 2.36s.52 1.24.81 1.84a23.83 23.83 0 0114.75 0c.24-.51.45-1 .67-1.56.42-.95.81-1.93 1.18-2.93zM35.29 36a7 7 0 117-7 7 7 0 01-7 7zM48.25 51.74c-.06.37-.15.72-.22 1.09-.11.58-.23 1.15-.36 1.72l-.39 1.62c-.13.53-.33 1.3-.51 1.93l-.33 1.1c-.25.8-.5 1.59-.77 2.36l-.15.4c-.35.95-.71 1.89-1.09 2.8a22.9 22.9 0 0111.75 11.47 22.6 22.6 0 001-6.84 22.06 22.06 0 00-8.93-17.65zM30.17 75.21h.51l1.34-6.11h-.51l-1.34 6.11zM30.77 66.59l-.67.14v1.37h.67zM31.27 68.1h.92v-1.76l-.92.15zM33.42 75.21h.5l.45-6.11h-.5l-.45 6.11z"/><path class="cls-3" d="M33.62 66.18c-.31 0-.62.07-.93.1v1.82h.93zM34.12 68.1H35v-2h-.92zM36.22 69.1l.44 6.11h.5l-.44-6.11h-.5zM36.46 66.16h-.92v2h.92zM37 68.1h.93v-1.82c-.31 0-.62-.08-.93-.1zM38.56 69.1l1.34 6.11h.51l-1.34-6.11h-.51zM39.31 66.49l-.92-.15v1.76h.92zM39.81 68.1h.67v-1.37l-.67-.14z"/></g><g class="cls-2"><path class="cls-3" d="M110.06 67.57a.52.52 0 00.1-.33 1.38 1.38 0 00-.06-.26 1.34 1.34 0 00-.17-.27 1.55 1.55 0 00-.26-.25h-.05a2.65 2.65 0 00-.39-.26 3.09 3.09 0 00-.67-.26 2.23 2.23 0 00-.61-.08H107.38l-.17.08a.47.47 0 00-.15.13.5.5 0 00-.11.3v.13a1.85 1.85 0 001 1.06 2 2 0 002.11.01zm-1.74-.73l-.47-.5a.12.12 0 11.18-.17l.44.46 1.07.09a.11.11 0 01.11.13.11.11 0 01-.12.11l-1.11-.08a.18.18 0 01-.1-.04z"/><path class="cls-3" d="M120.26 67.2a25.17 25.17 0 00-9.71-9.51 11.55 11.55 0 01-8.91 4.39h-.16a11.45 11.45 0 01-7.25-2.56l-.68.33c-4.07 2.06-9.55 6.32-12.79 14.87l-.05.12A3.18 3.18 0 0084.33 79a3.21 3.21 0 002.35-2A22.2 22.2 0 0192 68.6c.31-.3.62-.58.94-.85a.5.5 0 11.64.77c-.27.22-.52.46-.78.7l-1 12.55h5.88a.5.5 0 01.5.5v2.14a.5.5 0 01-.5.5h-1.51v4.42h1.49a.5.5 0 01.5.5v7.85a4.22 4.22 0 00.23-.93l1.91-12.28a2.25 2.25 0 014.37-.16l2.41 13a3.93 3.93 0 004.54 3.2 3.93 3.93 0 003.19-4.54l-2.91-21.82a45.87 45.87 0 01-5.67.62H106a4.17 4.17 0 01-.09-8.33h.44v-.06a.3.3 0 010-.1 1.38 1.38 0 010-.2 1 1 0 01.17-.33 2.19 2.19 0 012.4-.28 3 3 0 01.41.18 3.2 3.2 0 01.49.32l.12.12h.35l-.68-.89a.5.5 0 11.77-.63c.38.46.72.93 1 1.35a13.79 13.79 0 001.39-.27.5.5 0 01.25 1 23.16 23.16 0 01-2.5.45v1.29a1.56 1.56 0 01-.23.64l-.06.06a6.48 6.48 0 01.27 3.63 2.77 2.77 0 01-.27.72 34.63 34.63 0 008.7-2.24 2.67 2.67 0 001.45-1.65 2.83 2.83 0 00-.12-2.35z"/><path class="cls-3" d="M105.94 67.44a3.18 3.18 0 00-2.66 4.81 3.14 3.14 0 002.8 1.52h.11l1.85-.12c.84-1 .75-3.14.38-4.29a4 4 0 01-.82-.3 2.05 2.05 0 01-1.25-1.62zM109 69.71a5.18 5.18 0 01.1.61l1.07-.11a4.81 4.81 0 00-.14-.6zM110.29 71.31l-1.1.12v.62l1.11-.13a5.82 5.82 0 00-.01-.61zM110.29 71.06c0-.2 0-.41-.06-.61l-1.07.11v.61zM110 73l-1.09.1a3.1 3.1 0 01-.21.45q.51 0 1-.12a1.77 1.77 0 00.3-.43zM108.8 68.94v.08c0 .14.09.28.14.45l1-.11a2.78 2.78 0 00-.21-.49zM110.17 72.54c0-.12 0-.24.07-.37l-1.13.13a4.78 4.78 0 01-.12.57l1.11-.1.07-.23zM85.1 82.77h12.05v1.14H85.1zM94.81 84.91h.86v4.42h-.86zM85.1 90.33h12.05v13.63H85.1zM86.59 84.91h.86v4.42h-.86zM94.31 89.33v-4.42h-2.79l-.37 4.42h3.16zM90.91 50.64A10.58 10.58 0 10102.75 40v1.46a.79.79 0 01-.43.71 1.3 1.3 0 01-.6.14 1.44 1.44 0 01-.74-.2.78.78 0 01-.4-.69v-1.46a10.56 10.56 0 00-9.67 10.68zm11-5c8.43.16 9 3.13 8.92 6.78s-4.2 7.54-9.19 7.44-9-4.14-8.9-7.79.35-6.56 9.19-6.39z"/><path class="cls-3" d="M95.15 56.08a.22.22 0 00.3 0 .22.22 0 00.07-.22c-.71-2.7-.77-5.25 1.64-7.65.54-.54-.23-1.48-.93-1.16-2.09.92-2.55 2.91-2.6 5.1a6.12 6.12 0 001.52 3.93zM102.05 41.74a.28.28 0 00.17-.28l.07-3a1.62 1.62 0 01-.49.08 1.91 1.91 0 01-.68-.12l-.07 3a.28.28 0 00.17.25.91.91 0 00.83.07z"/></g><circle cx="35.29" cy="28.99" r="4.97" fill="#fff" opacity=".64"/></g><g class="cls-5"><path class="cls-6" d="M56.09 82.77h8.04v3.16h-8.04z"/></g><g class="cls-5"><path class="cls-6" d="M84.6 105a.51.51 0 01-.5-.5v-1H51.42a1.86 1.86 0 010-3.72h19a.87.87 0 100-1.73H36a1.87 1.87 0 010-3.73h26a.86.86 0 100-1.72H38.17a1.86 1.86 0 01-1.86-1.86v-.31H19.42a.5.5 0 01-.5-.5v-3h-2.34a.5.5 0 010-1h2.34v-3.16h-2.34a.5.5 0 010-1h47.55V31H48.94a74.57 74.57 0 01.45 8 72.76 72.76 0 01-1 11.71 23.06 23.06 0 019.79 18.74 23.47 23.47 0 01-1.53 8.42.5.5 0 01-.47.33.5.5 0 01-.46-.32A21.87 21.87 0 0044 65.69c-.21.47-.41 1-.63 1.41a.51.51 0 01-.45.29.41.41 0 01-.16 0c-.43-.14-.86-.26-1.29-.37v1.52l2.57 7A.48.48 0 0144 76a.49.49 0 01-.41.21H27a.49.49 0 01-.41-.21.48.48 0 01-.06-.46l2.57-7V67c-.43.11-.86.23-1.29.37a.49.49 0 01-.6-.26c-.23-.45-.43-.94-.64-1.42a21.9 21.9 0 00-11.76 12.12.49.49 0 01-.46.32.6.6 0 01-.47-.33 23.5 23.5 0 01-1.53-8.42 23 23 0 019.8-18.74 72.85 72.85 0 01-1-11.71 69.36 69.36 0 013.4-21.72A41.13 41.13 0 007.51 30.83a42.16 42.16 0 00-2.51 44c4 7.22 10.09 13 16.22 18.58 7 6.32 18.68 29.36 51.79 20.84A70 70 0 0093.93 105z"/></g><g class="cls-5"><path class="cls-6" d="M35 66.12h-.92v1.98H35z"/></g><g class="cls-5"><path class="cls-6" d="M32.02 69.1h-.51l-1.34 6.11h.51l1.34-6.11z"/></g><g class="cls-5"><path class="cls-6" d="M30.1 66.73v1.37h.67v-1.51z"/></g><g class="cls-5"><path class="cls-6" d="M32.19 66.34l-.92.15v1.61h.92z"/></g><g class="cls-5"><path class="cls-6" d="M38 82.77h8.04v3.16H38z"/></g><g class="cls-5"><path class="cls-6" d="M47.05 82.77h8.04v3.16h-8.04z"/></g><g class="cls-5"><path class="cls-6" d="M28.96 82.77H37v3.16h-8.04z"/></g><g class="cls-5"><path class="cls-6" d="M19.92 82.77h8.04v3.16h-8.04z"/></g><g class="cls-5"><path class="cls-6" d="M34.37 69.1h-.5l-.45 6.11h.5l.45-6.11z"/></g><g class="cls-5"><path class="cls-6" d="M51.63 25.58l3.66-3.66h-7.32l3.66 3.66z"/></g><g class="cls-5"><path class="cls-6" d="M48.73 29.19c0 .25.08.5.11.76h6.45l-3.66-3.66z"/></g><g class="cls-5"><path class="cls-6" d="M48.64 28.57l2.64-2.64-3.89-3.88a66 66 0 011.25 6.52z"/></g><g class="cls-5"><path class="cls-6" d="M60.12 25.58l3.66-3.66h-7.32l3.66 3.66z"/></g><g class="cls-5"><path class="cls-6" d="M64.13 22.27l-3.66 3.66 3.66 3.66v-7.32z"/></g><g class="cls-5"><path class="cls-6" d="M56.46 29.95h7.32l-3.66-3.66-3.66 3.66z"/></g><g class="cls-5"><path class="cls-6" transform="rotate(-45 55.88 25.93)" d="M53.12 23.18h5.5v5.5h-5.5z"/></g><g class="cls-5"><path class="cls-6" d="M40.48 66.73l-.67-.14v1.51h.67z"/></g><g class="cls-5"><path class="cls-6" d="M35.54 66.12v2h.92v-1.96c-.3-.02-.61-.04-.92-.04z"/></g><g class="cls-5"><path class="cls-6" d="M37.89 66.28c-.31 0-.62-.08-.93-.1v1.92h.93z"/></g><g class="cls-5"><path class="cls-6" d="M37.16 75.21l-.44-6.11h-.5l.44 6.11h.5z"/></g><g class="cls-5"><path class="cls-6" d="M40.41 75.21l-1.34-6.11h-.51l1.34 6.11h.51z"/></g><g class="cls-5"><path class="cls-6" d="M39.31 66.49l-.92-.15v1.76h.92z"/></g><g class="cls-5"><path class="cls-6" d="M32.69 66.28v1.82h.93v-1.92c-.31.02-.62.07-.93.1z"/></g><g class="cls-5"><path class="cls-6" d="M73.16 47.74L69.5 51.4l3.66 3.66v-7.32z"/></g><g class="cls-5"><path class="cls-6" d="M73.16 56.23l-3.66 3.66 3.66 3.66v-7.32z"/></g><g class="cls-5"><path class="cls-6" d="M73.16 39.25l-3.66 3.66 3.66 3.66v-7.32z"/></g><g class="cls-5"><path class="cls-6" d="M73.16 30.95h-.19l-3.47 3.47 3.66 3.66v-7.13z"/></g><g class="cls-5"><path class="cls-6" transform="rotate(-45 69.14 47.15)" d="M66.39 44.4h5.5v5.5h-5.5z"/></g><g class="cls-5"><path class="cls-6" d="M73.16 73.2l-3.66 3.66 3.66 3.66V73.2z"/></g><g class="cls-5"><path class="cls-6" transform="rotate(-45 69.13 64.13)" d="M66.39 61.38h5.5v5.5h-5.5z"/></g><g class="cls-5"><path class="cls-6" transform="rotate(-45 69.15 55.64)" d="M66.39 52.89h5.5v5.5h-5.5z"/></g><g class="cls-5"><path class="cls-6" transform="rotate(-45 69.14 72.62)" d="M66.39 69.87h5.5v5.5h-5.5z"/></g><g class="cls-5"><path class="cls-6" d="M65.48 29.95h6.97l-3.48-3.49-3.49 3.49z"/></g><g class="cls-5"><path class="cls-6" d="M73.16 64.72l-3.66 3.66 3.66 3.65v-7.31z"/></g><g class="cls-5"><path class="cls-6" d="M65.13 29.59l3.48-3.48-3.48-3.48v6.96z"/></g><g class="cls-5"><path class="cls-6" d="M65.13 81.77h8.03v-.54l-4.02-4.01-4.01 4.01v.54z"/></g><g class="cls-5"><path class="cls-6" d="M65.13 82.77h8.06v3.16h-8.06z"/></g><g class="cls-5"><path class="cls-6" d="M65.13 72.03l3.66-3.65-3.66-3.66v7.31z"/></g><g class="cls-5"><path class="cls-6" d="M65.13 63.55l3.66-3.66-3.66-3.66v7.32z"/></g><g class="cls-5"><path class="cls-6" d="M65.13 38.08l3.66-3.66-3.48-3.47h-.18v7.13z"/></g><g class="cls-5"><path class="cls-6" d="M65.13 46.57l3.66-3.66-3.66-3.66v7.32z"/></g><g class="cls-5"><path class="cls-6" d="M65.13 55.06l3.66-3.66-3.66-3.66v7.32z"/></g><g class="cls-5"><path class="cls-6" d="M65.13 80.52l3.66-3.66-3.66-3.66v7.32z"/></g><g class="cls-5"><path class="cls-6" d="M128.73 45.61c-1.58-11.83-9.91-23.14-21.51-26C96.34 17 85 21.83 73.8 20.85c-8.8-.77-16.8-5.07-25.48-6.63-1.19-.21-2.4-.35-3.61-.45a56 56 0 012.39 7.15h17.66a.48.48 0 01.22.12l8.62 8.61a.24.24 0 01.23.05.23.23 0 010 .24l.13.12a.57.57 0 01.11.16.65.65 0 010 .2v51.35h1a.5.5 0 010 1h-1v3.16h1a.5.5 0 010 1h-1v3a.5.5 0 01-.5.5H37.31v.31a.86.86 0 00.86.86h23.77a1.86 1.86 0 110 3.72H36a.87.87 0 000 1.73h34.42a1.87 1.87 0 110 3.73h-19a.86.86 0 000 1.72H84.1V89.83a.5.5 0 01.5-.5h1.49v-4.42H84.6a.5.5 0 01-.5-.5v-2.14a.5.5 0 01.5-.5h6.18l1-11.43a21.87 21.87 0 00-4.11 7A4.2 4.2 0 0184.53 80a4.67 4.67 0 01-.83.08 4.17 4.17 0 01-3.93-5.55v-.15C83.14 65.52 88.87 61.1 93.1 59l.32-.16a11.56 11.56 0 01-2.76-4.25l-1-.22a1.71 1.71 0 01-1.35-1.47l-.18-1.29a1.76 1.76 0 01.92-1.77l.92-.47A11.53 11.53 0 01100.61 39v-.75a2 2 0 113.12-1.64 2 2 0 01-1 1.71v.72A11.52 11.52 0 01113 49.75l.9.51a1.77 1.77 0 01.85 1.81l-.22 1.3a1.74 1.74 0 01-1.41 1.41l-1 .14a11.33 11.33 0 01-1 1.95 26.33 26.33 0 0110 9.82 3.87 3.87 0 01.36 3.1 3.66 3.66 0 01-2 2.26 30.81 30.81 0 01-6.59 1.95l1.59 12a82.9 82.9 0 004.92-6.55c6.66-9.97 10.91-22 9.33-33.84z"/></g><g class="cls-5"><path class="cls-6" d="M66.02 30.95l3.12 3.12 3.13-3.12h-6.25z"/></g><g class="cls-5"><path class="cls-6" d="M103.69 84.54a1.23 1.23 0 00-1.23-.87 1.26 1.26 0 00-1.18 1l-1.9 12.22a4.88 4.88 0 01-1.22 2.7V102a74.63 74.63 0 006.56-5.63l1-1z"/></g><g class="cls-5"><path class="cls-6" transform="rotate(-45 69.13 38.66)" d="M66.39 35.92h5.5v5.5h-5.5z"/></g><g class="cls-5"><path class="cls-6" d="M90.14 89.33l.37-4.42h-2.56v4.42h2.19z"/></g><path d="M28.32 29a7 7 0 017-7V.5c-8.06 7.22-13.58 21.74-13.6 38.43 0 10.66 2.26 20.39 6 28a24 24 0 017.64-1.28V36a7 7 0 01-7.04-7z" fill-rule="evenodd" opacity=".4" fill="#d4d4d4"/><path class="cls-6" d="M101.66 59.9c5 .1 9.12-3.8 9.19-7.44s-.49-6.62-8.92-6.78c-8.84-.17-9.1 2.78-9.17 6.43s3.9 7.7 8.9 7.79zm-6.51-3.82a6.12 6.12 0 01-1.52-3.9c.05-2.19.51-4.18 2.6-5.1.7-.32 1.47.62.93 1.16-2.41 2.4-2.35 4.95-1.64 7.65a.22.22 0 01-.07.22.22.22 0 01-.3-.03z"/><path class="cls-6" d="M121.13 66.69a26.33 26.33 0 00-10-9.82 11.33 11.33 0 001-1.95l1-.14a1.74 1.74 0 001.41-1.41l.22-1.3a1.77 1.77 0 00-.85-1.81l-.9-.51A11.52 11.52 0 00102.78 39v-.72a2 2 0 001-1.71 2 2 0 10-3.12 1.64v.75A11.53 11.53 0 0090 49.33l-.92.47a1.76 1.76 0 00-.92 1.77l.18 1.29a1.71 1.71 0 001.35 1.47l1 .22a11.56 11.56 0 002.76 4.25l-.35.2c-4.23 2.14-10 6.56-13.28 15.4v.15a4.17 4.17 0 003.93 5.55 4.67 4.67 0 00.83-.08 4.2 4.2 0 003.09-2.69 21.87 21.87 0 014.11-7l-1 11.43H84.6a.5.5 0 00-.5.5v2.14a.5.5 0 00.5.5h1.49v4.42H84.6a.5.5 0 00-.5.5v12.68H51.42a.86.86 0 010-1.72h19a1.87 1.87 0 100-3.73H36a.87.87 0 010-1.73h26a1.86 1.86 0 100-3.72H38.17a.86.86 0 01-.86-.86v-.31h36.38a.5.5 0 00.5-.5v-3h1a.5.5 0 000-1h-1v-3.16h1a.5.5 0 000-1h-1V30.45a.65.65 0 000-.2.57.57 0 00-.11-.16l-.2-.09a.23.23 0 000-.24.24.24 0 00-.23-.05L65 21.07a.48.48 0 00-.22-.12H47.1C44.79 12.15 40.81 4.77 35.62.13a.49.49 0 00-.66 0c-8.47 7.59-13.75 22.46-13.77 38.8a72.85 72.85 0 001 11.71 23 23 0 00-9.8 18.74 23.5 23.5 0 001.53 8.42.6.6 0 00.47.33.49.49 0 00.46-.32 21.9 21.9 0 0111.72-12.13c.21.48.41 1 .64 1.42a.49.49 0 00.6.26c.43-.14.86-.26 1.29-.37v1.52l-2.57 7a.48.48 0 00.06.46.49.49 0 00.41.21h16.58A.49.49 0 0044 76a.48.48 0 00.06-.46l-2.57-7V67c.43.11.86.23 1.29.37a.41.41 0 00.16 0 .51.51 0 00.45-.29c.22-.45.42-.94.63-1.41a21.87 21.87 0 0111.74 12.14.5.5 0 00.46.32.5.5 0 00.47-.33 23.47 23.47 0 001.53-8.42 23.06 23.06 0 00-9.79-18.74 72.76 72.76 0 001-11.71 74.57 74.57 0 00-.45-8h15.15v50.84H16.58a.5.5 0 000 1h2.34v3.16h-2.34a.5.5 0 000 1h2.34v3a.5.5 0 00.5.5h16.89v.31a1.86 1.86 0 001.86 1.86h23.77a.86.86 0 110 1.72H36a1.87 1.87 0 000 3.73h34.42a.87.87 0 110 1.73h-19a1.86 1.86 0 000 3.72H84.1v1a.51.51 0 00.5.5h13.06a.51.51 0 00.5-.5v-4.92a4.88 4.88 0 001.22-2.7l1.9-12.22a1.26 1.26 0 011.18-1 1.23 1.23 0 011.23.87l2.41 12.92a4.92 4.92 0 004.84 4.08 5 5 0 00.85-.08 4.92 4.92 0 004-5.67L112.89 74a30.81 30.81 0 006.61-1.92 3.66 3.66 0 002-2.26 3.87 3.87 0 00-.37-3.13zM73.16 31v7.13l-3.66-3.71L73 31zM73 38.67l-3.89 3.89-3.89-3.89 3.89-3.89zM66 31h6.25l-3.13 3.12zm7 16.2l-3.89 3.9-3.89-3.9 3.89-3.89zm0 8.49l-3.89 3.89-3.89-3.89 3.89-3.89zm0 8.49L69.14 68l-3.89-3.89 3.89-3.89zm0 8.49l-3.89 3.89-3.89-3.89 3.89-3.89zm.13.58v7.32l-3.63-3.71zm-3.63-4.87l3.66-3.66V72zm0-8.49l3.66-3.66v7.32zm0-8.49l3.66-3.66v7.32zm0-8.49l3.66-3.66v7.32zm3-13h-7l3.5-3.45zm-7.32-7.32l3.48 3.48-3.48 3.48zm0 8.32h.18l3.48 3.47-3.66 3.66zm0 8.3l3.66 3.66-3.66 3.66zm0 8.49l3.66 3.66-3.66 3.66zm0 8.49l3.66 3.66-3.66 3.66zm0 8.49l3.66 3.66L65.13 72zm0 8.48l3.66 3.66-3.66 3.66zm0 8l4-4 4 4v.54h-8zm0 1.54h8.06v3.16h-8.11zm-1.4-60.78l-3.66 3.66-3.66-3.66zm-8.49 0l-3.66 3.66L48 21.92zm-20-20.74c4 3.75 7.31 9.24 9.58 15.77H25.71C28 10.42 31.25 4.93 35.29 1.18zM14.4 76.23a22.07 22.07 0 017.92-24.49c.09.54.22 1 .32 1.58l.2.93a61.01 61.01 0 001.46 5.45c.2.62.34 1.09.53 1.63l.43 1.16c.27.72.54 1.43.83 2.13l.06.14A22.83 22.83 0 0014.4 76.23zm16.28-1h-.51l1.34-6.11H32zm-.58-7.13v-1.37l.67-.14v1.51zm2.09 0h-.92v-1.61l.92-.15zm1.73 7.11h-.5l.44-6.11h.51zm-1.23-7.11v-1.82c.31 0 .62-.08.93-.1v1.92zm2.35 0h-.92v-1.94h.92zm1.62 7.11l-.44-6.11h.5l.44 6.11zm-1.12-7.11v-2h.92v2zm2.35 0H37v-1.92c.31 0 .62.07.93.1zm2 7.11l-1.33-6.11h.51l1.34 6.11zm-1.5-7.11v-1.76l.92.15v1.61zm2.09 0h-.67v-1.51l.67.14zm2.86-3.38l-.67 1.56a23.83 23.83 0 00-14.75 0c-.29-.6-.54-1.22-.81-1.84s-.64-1.56-.94-2.36L25.78 61a58.5 58.5 0 01-1.53-5.15c-.17-.69-.34-1.38-.49-2.09l-.25-1.24a72.36 72.36 0 01-1.32-13.61 68.37 68.37 0 013.36-21.48H45a68.37 68.37 0 013.36 21.48 72.11 72.11 0 01-1.16 12.94c-.14.74-.28 1.47-.44 2.2l-.31 1.32c-.19.78-.39 1.56-.6 2.32l-.29 1c-.27.9-.55 1.78-.86 2.65l-.18.5a69.8 69.8 0 01-1.18 2.88zm13.88 4.67a22.6 22.6 0 01-1 6.84 22.9 22.9 0 00-11.79-11.47c.38-.91.74-1.85 1.09-2.8l.15-.4c.27-.77.52-1.56.77-2.36l.33-1.1c.18-.63.35-1.28.51-1.93s.27-1.07.39-1.62.25-1.14.36-1.72c.07-.37.16-.72.22-1.09a22.06 22.06 0 018.97 17.65zm-9.83-47.34l3.89 3.88-2.64 2.64a66 66 0 00-1.25-6.52zM48.84 30c0-.26-.08-.51-.11-.76l2.9-2.9L55.29 30zm3.14-4l3.89-4 3.89 3.89-3.89 3.89zm4.48 4l3.66-3.66L63.78 30zm4-4l3.66-3.66v7.32zm-4.37 56.77h8v3.16h-8zm-9 0h8v3.16h-8zm-9 0h8v3.16H38zM28 85.93h-8v-3.16h8zm9 0h-8v-3.16h8zm64.05-44.49l.07-3a1.91 1.91 0 00.68.12 1.62 1.62 0 00.49-.08l-.07 3a.28.28 0 01-.17.28.91.91 0 01-.83-.05.28.28 0 01-.17-.25zm-10.14 9.2A10.56 10.56 0 01100.59 40v1.46a.78.78 0 00.4.69 1.44 1.44 0 00.74.2 1.3 1.3 0 00.6-.14.79.79 0 00.43-.71v-1.46a10.57 10.57 0 11-11.85 10.6zM85.1 83.91v-1.14h12.06v1.14zm10.57 1v4.42h-.86v-4.42zm-1.36 0v4.42h-3.16l.37-4.42zm-3.8 0l-.37 4.42H88v-4.42zm-3.06 0v4.42h-.86v-4.42zm9.71 19H85.1V90.33h12.06zm23.37-34.47a2.67 2.67 0 01-1.45 1.65 34.63 34.63 0 01-8.7 2.24 2.77 2.77 0 00.27-.72 6.48 6.48 0 00-.27-3.63l.06-.06a1.56 1.56 0 00.23-.64v-1.02-.08-.14c0-.05 0 0 0 0a23.16 23.16 0 002.5-.45.5.5 0 00-.25-1 13.79 13.79 0 01-1.39.27l-1-1.35a.5.5 0 10-.77.63l.68.89h-.35l-.19-.03a3.2 3.2 0 00-.49-.32 3 3 0 00-.41-.18 2.19 2.19 0 00-2.4.28 1 1 0 00-.17.33 1.38 1.38 0 000 .2.3.3 0 000 .1v.06h-.44a4.17 4.17 0 00.09 8.33h.23a45.87 45.87 0 005.67-.62l2.91 21.79a3.92 3.92 0 01-6.12 3.88 3.87 3.87 0 01-1.61-2.54l-2.41-13a2.25 2.25 0 00-4.37.16l-1.99 12.28a4.22 4.22 0 01-.23.93v-7.85a.5.5 0 00-.5-.5h-1.49v-4.42h1.49a.5.5 0 00.5-.5v-2.14a.5.5 0 00-.5-.5h-5.88l1-12.55c.26-.24.51-.48.78-.7a.5.5 0 10-.64-.77c-.32.27-.63.55-.94.85a22.2 22.2 0 00-5.3 8.4 3.15 3.15 0 01-4 1.93 3.16 3.16 0 01-1.94-4l.05-.12c3.21-8.64 8.69-12.9 12.76-14.96l.68-.33a11.45 11.45 0 007.25 2.56h.16a11.55 11.55 0 008.91-4.39 25.17 25.17 0 019.71 9.51 2.83 2.83 0 01.27 2.29zm-12.93-.43a4 4 0 00.82.3c.37 1.15.46 3.3-.38 4.29l-1.85.12h-.11a3.14 3.14 0 01-2.8-1.52 3.18 3.18 0 012.66-4.81h.41a2.05 2.05 0 001.25 1.67zm.23-1.52a1.85 1.85 0 01-1-1.06v-.13a.5.5 0 01.11-.3.47.47 0 01.15-.13l.17-.08H107.83a2.23 2.23 0 01.61.08 3.09 3.09 0 01.67.26 2.65 2.65 0 01.39.26h.05a1.55 1.55 0 01.26.25 1.34 1.34 0 01.17.27 1.38 1.38 0 01.06.26.52.52 0 01-.1.33 2 2 0 01-2.11.04zm1.29 2.78a5.18 5.18 0 00-.1-.61l1-.1a4.81 4.81 0 01.14.6zm1.11.13c0 .2 0 .41.06.61l-1.1.11v-.61zm-1.26-1c0-.17-.09-.31-.14-.45s0-.06 0-.08l1-.07a2.78 2.78 0 01.21.49zm-.06 3.66L110 73a1.77 1.77 0 01-.28.43q-.51.08-1 .12a3.1 3.1 0 00.19-.42zm.08-.26a4.78 4.78 0 00.12-.57l1.13-.13c0 .13 0 .25-.07.37s0 .15-.07.23zm.17-.83v-.62l1.1-.12a5.82 5.82 0 010 .6z"/><path class="cls-6" d="M84.34 77.45c-.38.07-.64.31-.6.53s.39.34.76.26.65-.32.6-.54-.38-.33-.76-.25z"/><rect class="cls-6" x="95.77" y="64.92" width="3.25" height="3.25" rx=".73" transform="rotate(-1.74 97.46 66.69)"/><path class="cls-6" d="M107.85 66.16a.13.13 0 000 .18l.47.5a.18.18 0 00.09 0l1.11.08a.11.11 0 00.12-.11.11.11 0 00-.11-.13l-1.07-.09-.44-.46a.13.13 0 00-.17.03zM35.29 22a7 7 0 107 7 7 7 0 00-7-7zm0 11.93a5 5 0 115-5 5 5 0 01-5 5.07z"/></g></g></svg>