<?xml version="1.0" standalone="no"?><!DOCTYPE svg PUBLIC "-//W3C//DTD SVG 1.1//EN" "http://www.w3.org/Graphics/SVG/1.1/DTD/svg11.dtd"><svg t="1594535368722" class="icon" viewBox="0 0 1024 1024" version="1.1" xmlns="http://www.w3.org/2000/svg" p-id="6271" xmlns:xlink="http://www.w3.org/1999/xlink" width="128px" height="72px"><defs><style type="text/css"></style></defs><path d="M443.6992 797.0816l-277.43573333 24.02986667c-44.78293333 3.82293333-84.65066667-29.4912-88.4736-74.27413334L42.83733334 338.3296C39.0144 293.54666667 72.32853334 253.67893333 117.11146667 249.856l278.528-24.02986667c14.19946667-1.09226667 25.12213333 13.65333333 19.11466667 26.76053334L350.3104 398.40426667c-3.2768 7.64586667-1.6384 15.83786667 4.36906667 21.84533333L440.96853334 501.07733333c6.5536 6.00746667 7.64586667 15.29173333 3.82293333 22.9376l-62.80533333 114.688c-3.2768 6.5536-3.2768 14.19946667 1.09226666 20.20693334L457.89866667 767.04426667c8.192 12.01493333 0 28.94506667-14.19946667 30.03733333zM736.9728 845.68746667l-255.5904-90.65813334c-7.64586667-2.73066667-12.56106667-9.8304-12.56106666-17.47626666l-3.2768-145.27146667c0-6.5536 3.2768-13.1072 9.28426666-16.93013333l132.16426667-81.37386667c8.192-4.9152 11.4688-15.29173333 7.64586667-24.02986667L555.65653334 331.776c-2.73066667-6.00746667-1.6384-13.1072 1.6384-18.56853333l69.35893333-100.48853334c4.9152-7.09973333 14.19946667-9.8304 22.39146667-7.09973333l279.62026666 99.39626667c42.5984 15.29173333 64.98986667 61.71306667 49.69813334 104.31146666L841.28426667 795.98933333c-15.29173333 42.5984-61.71306667 64.98986667-104.31146667 49.69813334z" fill="#d4c4b7" p-id="6272"></path></svg>
